<svg width="16" height="16" viewBox="0 0 16 16" fill="none" xmlns="http://www.w3.org/2000/svg">
<path fill-rule="evenodd" clip-rule="evenodd" d="M7.99996 15.3334C3.94987 15.3334 0.666626 12.0501 0.666626 8.00002C0.666626 3.94993 3.94987 0.666687 7.99996 0.666687C12.05 0.666687 15.3333 3.94993 15.3333 8.00002C15.3333 12.0501 12.05 15.3334 7.99996 15.3334ZM7.99996 14C11.3137 14 14 11.3137 14 8.00002C14 4.68631 11.3137 2.00002 7.99996 2.00002C4.68625 2.00002 1.99996 4.68631 1.99996 8.00002C1.99996 11.3137 4.68625 14 7.99996 14ZM10.1952 5.52862L6.66663 9.05721L5.13803 7.52862L4.19522 8.47143L6.66663 10.9428L11.138 6.47143L10.1952 5.52862Z" fill="#8FB669"/>
</svg>
