<svg width="16" height="16" viewBox="0 0 16 16" fill="none" xmlns="http://www.w3.org/2000/svg">
<g clip-path="url(#clip0_0_477)">
<path d="M7.2462 14.3401L7.89161 14.7222L7.89161 14.7222L7.2462 14.3401ZM7.41915 14.0479L6.77374 13.6659L6.77374 13.6659L7.41915 14.0479ZM5.91412 14.0479L6.55954 13.6659L6.55953 13.6659L5.91412 14.0479ZM6.08708 14.3401L5.44166 14.7222L5.44166 14.7222L6.08708 14.3401ZM1.5363 11.4205L2.22921 11.1335L2.22921 11.1335L1.5363 11.4205ZM4.19285 13.0567L4.21683 12.307L4.21683 12.307L4.19285 13.0567ZM2.97949 12.8637L2.69248 13.5566L2.69248 13.5566L2.97949 12.8637ZM11.797 11.4205L12.4899 11.7075L12.4899 11.7075L11.797 11.4205ZM9.14042 13.0567L9.11644 12.307L9.11644 12.307L9.14042 13.0567ZM10.3538 12.8637L10.6408 13.5566L10.6408 13.5566L10.3538 12.8637ZM10.7266 4.39296L11.1185 3.75348L11.1185 3.75348L10.7266 4.39296ZM11.607 5.27334L12.2465 4.88147L12.2465 4.88147L11.607 5.27334ZM2.60665 4.39296L2.21477 3.75348L2.21477 3.75348L2.60665 4.39296ZM1.72627 5.27334L1.08679 4.88147L1.08679 4.88147L1.72627 5.27334ZM5.27756 13.2149L4.89572 13.8604L4.89572 13.8604L5.27756 13.2149ZM7.89161 14.7222L8.06457 14.43L6.77374 13.6659L6.60078 13.9581L7.89161 14.7222ZM5.2687 14.43L5.44166 14.7222L6.73249 13.9581L6.55954 13.6659L5.2687 14.43ZM6.60078 13.9581C6.60773 13.9464 6.62053 13.9336 6.6358 13.9253C6.64899 13.9182 6.65961 13.9167 6.66664 13.9167C6.67366 13.9167 6.68428 13.9182 6.69747 13.9253C6.71274 13.9336 6.72554 13.9464 6.73249 13.9581L5.44166 14.7222C5.98976 15.6482 7.34351 15.6482 7.89161 14.7222L6.60078 13.9581ZM5.86665 4.75H7.46665V3.25H5.86665V4.75ZM11.25 8.53335V9.06669H12.75V8.53335H11.25ZM2.08331 9.06669V8.53335H0.583313V9.06669H2.08331ZM0.583313 9.06669C0.583313 9.67768 0.582907 10.1735 0.610426 10.5768C0.638405 10.9869 0.697735 11.3559 0.843391 11.7075L2.22921 11.1335C2.17188 10.9951 2.12971 10.8084 2.10695 10.4747C2.08372 10.1343 2.08331 9.69821 2.08331 9.06669H0.583313ZM4.21683 12.307C3.69459 12.2903 3.44551 12.245 3.2665 12.1708L2.69248 13.5566C3.13417 13.7396 3.61101 13.7884 4.16887 13.8063L4.21683 12.307ZM0.843391 11.7075C1.19016 12.5447 1.8553 13.2099 2.69248 13.5566L3.2665 12.1708C2.79687 11.9763 2.42374 11.6031 2.22921 11.1335L0.843391 11.7075ZM11.25 9.06669C11.25 9.69821 11.2496 10.1343 11.2263 10.4747C11.2036 10.8084 11.1614 10.9951 11.1041 11.1335L12.4899 11.7075C12.6356 11.3559 12.6949 10.9869 12.7229 10.5768C12.7504 10.1735 12.75 9.67768 12.75 9.06669H11.25ZM9.1644 13.8063C9.72226 13.7884 10.1991 13.7396 10.6408 13.5566L10.0668 12.1708C9.88778 12.245 9.6387 12.2903 9.11644 12.307L9.1644 13.8063ZM11.1041 11.1335C10.9096 11.6031 10.5364 11.9763 10.0668 12.1708L10.6408 13.5566C11.478 13.2099 12.1431 12.5447 12.4899 11.7075L11.1041 11.1335ZM7.46665 4.75C8.35408 4.75 8.96699 4.75079 9.43987 4.79575C9.90159 4.83965 10.1518 4.92031 10.3348 5.03244L11.1185 3.75348C10.6602 3.47265 10.1534 3.35683 9.58185 3.30249C9.0215 3.24921 8.32504 3.25 7.46665 3.25V4.75ZM12.75 8.53335C12.75 7.67496 12.7508 6.97849 12.6975 6.41814C12.6432 5.84662 12.5273 5.33974 12.2465 4.88147L10.9675 5.66522C11.0797 5.84819 11.1603 6.0984 11.2042 6.56012C11.2492 7.033 11.25 7.64591 11.25 8.53335H12.75ZM10.3348 5.03244C10.5927 5.19048 10.8095 5.40732 10.9675 5.66522L12.2465 4.88147C11.9648 4.42174 11.5783 4.03521 11.1185 3.75348L10.3348 5.03244ZM5.86665 3.25C5.00825 3.25 4.31179 3.24921 3.75144 3.30249C3.17993 3.35683 2.67305 3.47265 2.21477 3.75348L2.99853 5.03244C3.1815 4.92031 3.43171 4.83965 3.89342 4.79575C4.3663 4.75079 4.97921 4.75 5.86665 4.75V3.25ZM2.08331 8.53335C2.08331 7.64591 2.0841 7.033 2.12907 6.56012C2.17297 6.0984 2.25362 5.84819 2.36575 5.66522L1.08679 4.88147C0.805962 5.33974 0.69014 5.84662 0.6358 6.41814C0.582522 6.97849 0.583313 7.67496 0.583313 8.53335H2.08331ZM2.21477 3.75348C1.75504 4.03521 1.36852 4.42174 1.08679 4.88147L2.36575 5.66522C2.52379 5.40732 2.74063 5.19048 2.99853 5.03244L2.21477 3.75348ZM6.55953 13.6659C6.42803 13.4437 6.30387 13.2325 6.18151 13.064C6.05024 12.8833 5.88927 12.7053 5.6594 12.5694L4.89572 13.8604C4.89575 13.8604 4.89575 13.8604 4.89572 13.8604C4.89571 13.8604 4.8957 13.8604 4.89569 13.8604C4.89568 13.8604 4.89568 13.8604 4.89568 13.8604C4.89567 13.8604 4.89567 13.8604 4.89567 13.8604C4.89567 13.8604 4.89568 13.8604 4.89568 13.8604C4.89568 13.8604 4.89569 13.8604 4.8957 13.8604C4.89572 13.8604 4.89575 13.8604 4.89579 13.8605C4.89588 13.8605 4.89604 13.8607 4.89628 13.8608C4.89709 13.8615 4.8999 13.8637 4.90494 13.8687C4.9157 13.8793 4.93577 13.9013 4.96787 13.9455C5.03929 14.0439 5.12303 14.1838 5.26871 14.43L6.55953 13.6659ZM4.16887 13.8063C4.47033 13.8159 4.64708 13.8223 4.77759 13.8382C4.89629 13.8527 4.90943 13.8685 4.89572 13.8604L5.6594 12.5694C5.42492 12.4307 5.18368 12.3766 4.95921 12.3492C4.74655 12.3233 4.49133 12.3158 4.21683 12.307L4.16887 13.8063ZM8.06457 14.43C8.21024 14.1838 8.29398 14.0439 8.3654 13.9455C8.3975 13.9013 8.41757 13.8793 8.42833 13.8687C8.43337 13.8637 8.43619 13.8615 8.43699 13.8608C8.43723 13.8607 8.43739 13.8605 8.43748 13.8605C8.43752 13.8604 8.43755 13.8604 8.43757 13.8604C8.43758 13.8604 8.43759 13.8604 8.43759 13.8604C8.4376 13.8604 8.4376 13.8604 8.4376 13.8604C8.4376 13.8604 8.4376 13.8604 8.43759 13.8604C8.43759 13.8604 8.43759 13.8604 8.43758 13.8604C8.43757 13.8604 8.43756 13.8604 8.43755 13.8604C8.43753 13.8604 8.43752 13.8604 8.43755 13.8604L7.67387 12.5694C7.444 12.7053 7.28303 12.8833 7.15176 13.064C7.0294 13.2325 6.90524 13.4437 6.77374 13.6659L8.06457 14.43ZM9.11644 12.307C8.84195 12.3158 8.58673 12.3233 8.37406 12.3492C8.14959 12.3766 7.90836 12.4307 7.67387 12.5694L8.43755 13.8604C8.42384 13.8685 8.43698 13.8527 8.55568 13.8382C8.68619 13.8223 8.86294 13.8159 9.1644 13.8063L9.11644 12.307Z" fill="#878EA2"/>
<path d="M14.4763 8.29007L15.1692 8.57708L15.1692 8.57708L14.4763 8.29007ZM13.1233 9.64306L13.4103 10.336L13.4103 10.336L13.1233 9.64306ZM13.4729 1.70173L13.081 2.34121L13.081 2.34121L13.4729 1.70173ZM14.2982 2.52709L14.9377 2.13521L14.9377 2.13521L14.2982 2.52709ZM5.86036 1.70173L5.46849 1.06225L5.46849 1.06225L5.86036 1.70173ZM5.03501 2.52709L4.39553 2.13521L4.39553 2.13521L5.03501 2.52709ZM8.91661 2.08333H10.4166V0.583328H8.91661V2.08333ZM13.9166 5.58335V6.08335H15.4166V5.58335H13.9166ZM13.9166 6.08335C13.9166 6.67604 13.9162 7.083 13.8946 7.40019C13.8734 7.71065 13.8344 7.87996 13.7834 8.00305L15.1692 8.57708C15.3085 8.24074 15.3647 7.88913 15.3911 7.5023C15.417 7.1222 15.4166 6.65552 15.4166 6.08335H13.9166ZM13.7834 8.00305C13.6058 8.43186 13.2651 8.77254 12.8363 8.95015L13.4103 10.336C14.2067 10.0061 14.8394 9.37342 15.1692 8.57708L13.7834 8.00305ZM10.4166 2.08333C11.2495 2.08333 11.8215 2.08412 12.2621 2.12601C12.6915 2.16684 12.918 2.24136 13.081 2.34121L13.8647 1.06225C13.4265 0.793698 12.9433 0.684016 12.4041 0.632746C11.876 0.582537 11.2204 0.583328 10.4166 0.583328V2.08333ZM15.4166 5.58335C15.4166 4.77951 15.4174 4.12396 15.3672 3.5959C15.3159 3.05667 15.2062 2.57345 14.9377 2.13521L13.6587 2.91896C13.7586 3.0819 13.8331 3.30845 13.8739 3.73788C13.9158 4.17847 13.9166 4.75046 13.9166 5.58335H15.4166ZM13.081 2.34121C13.3165 2.48551 13.5144 2.68349 13.6587 2.91896L14.9377 2.13521C14.6697 1.69791 14.302 1.33023 13.8647 1.06225L13.081 2.34121ZM8.91661 0.583328C8.11278 0.583328 7.45723 0.582537 6.92917 0.632746C6.38994 0.684016 5.90672 0.793698 5.46849 1.06225L6.25224 2.34121C6.41518 2.24136 6.64172 2.16684 7.07115 2.12601C7.51174 2.08412 8.08373 2.08333 8.91661 2.08333V0.583328ZM5.46849 1.06225C5.03118 1.33023 4.66351 1.69791 4.39553 2.13521L5.67449 2.91896C5.81879 2.68349 6.01677 2.48551 6.25224 2.34121L5.46849 1.06225ZM5.43777 4.03895C5.47052 3.40928 5.55154 3.1196 5.67449 2.91896L4.39553 2.13521C4.07042 2.66575 3.97585 3.26787 3.93979 3.96104L5.43777 4.03895ZM12.0249 10.5731C12.5423 10.5559 12.9918 10.5093 13.4103 10.336L12.8363 8.95015C12.6784 9.01555 12.4546 9.05796 11.9751 9.0739L12.0249 10.5731Z" fill="#878EA2"/>
<path d="M4.33936 8.66667H4.34536M6.6665 8.66667H6.6725M8.99384 8.66667H8.99984" stroke="#878EA2" stroke-width="2" stroke-linecap="round" stroke-linejoin="round"/>
</g>
<defs>
<clipPath id="clip0_0_477">
<rect width="16" height="16" fill="white"/>
</clipPath>
</defs>
</svg>
