<svg width="16" height="17" viewBox="0 0 16 17" fill="none" xmlns="http://www.w3.org/2000/svg">
<path fill-rule="evenodd" clip-rule="evenodd" d="M8 3.16663C9.81837 3.16663 11.5571 4.12038 13.1775 5.68739C13.7303 6.22199 14.2305 6.79273 14.6707 7.36371C14.9364 7.70825 15.125 7.97929 15.2283 8.14076L15.458 8.49996L15.2283 8.85916C15.125 9.02063 14.9364 9.29167 14.6707 9.63621C14.2305 10.2072 13.7303 10.7779 13.1775 11.3125C11.5571 12.8795 9.81837 13.8333 8 13.8333C6.18163 13.8333 4.44288 12.8795 2.82247 11.3125C2.26966 10.7779 1.76954 10.2072 1.32927 9.63621C1.0636 9.29167 0.874983 9.02063 0.77171 8.85916L0.541977 8.49996L0.77171 8.14076C0.874983 7.97929 1.0636 7.70825 1.32927 7.36371C1.76954 6.79273 2.26966 6.22199 2.82247 5.68739C4.44288 4.12038 6.18163 3.16663 8 3.16663ZM13.6148 8.17788C13.2117 7.65511 12.7534 7.13209 12.2506 6.64586C10.855 5.29621 9.40339 4.49996 8 4.49996C6.59662 4.49996 5.14499 5.29621 3.74936 6.64586C3.24656 7.13209 2.78826 7.65511 2.38516 8.17788C2.29811 8.29078 2.21766 8.39851 2.14411 8.49996C2.21766 8.60141 2.29811 8.70914 2.38516 8.82204C2.78826 9.34481 3.24656 9.86782 3.74936 10.3541C5.14499 11.7037 6.59662 12.5 8 12.5C9.40339 12.5 10.855 11.7037 12.2506 10.3541C12.7534 9.86782 13.2117 9.34481 13.6148 8.82204C13.7019 8.70914 13.7823 8.60141 13.8559 8.49996C13.7823 8.39851 13.7019 8.29078 13.6148 8.17788ZM5.33333 8.49996C5.33333 9.97272 6.52724 11.1666 8 11.1666C9.47276 11.1666 10.6667 9.97272 10.6667 8.49996C10.6667 7.0272 9.47276 5.83329 8 5.83329C6.52724 5.83329 5.33333 7.0272 5.33333 8.49996ZM9.33333 8.49996C9.33333 9.23634 8.73638 9.83329 8 9.83329C7.26362 9.83329 6.66667 9.23634 6.66667 8.49996C6.66667 7.76358 7.26362 7.16663 8 7.16663C8.73638 7.16663 9.33333 7.76358 9.33333 8.49996Z" fill="#4679B2"/>
</svg>
