<svg width="16" height="16" viewBox="0 0 16 16" fill="none" xmlns="http://www.w3.org/2000/svg">
<path d="M6.66667 12V11.9287C6.66667 11.3987 6.336 10.9367 5.922 10.606C5.38164 10.1751 4.9886 9.58682 4.79727 8.92268C4.60594 8.25853 4.62579 7.55134 4.85406 6.89897C5.08234 6.24661 5.50776 5.68133 6.07144 5.28138C6.63512 4.88143 7.30918 4.66659 8.00033 4.66659C8.69149 4.66659 9.36555 4.88143 9.92923 5.28138C10.4929 5.68133 10.9183 6.24661 11.1466 6.89897C11.3749 7.55134 11.3947 8.25853 11.2034 8.92268C11.0121 9.58682 10.619 10.1751 10.0787 10.606C9.664 10.9373 9.33333 11.3987 9.33333 11.9287V12M6.66667 12V13.3333C6.66667 13.5101 6.7369 13.6797 6.86193 13.8047C6.98695 13.9298 7.15652 14 7.33333 14H8.66667C8.84348 14 9.01305 13.9298 9.13807 13.8047C9.2631 13.6797 9.33333 13.5101 9.33333 13.3333V12M6.66667 12H9.33333M13.3333 8H14M2.66667 8H2M8 2.66667V2M11.7713 4.22867L12.2427 3.75733M4.22933 4.22867L3.75733 3.75733M8 10V8.66667" stroke="#FFC743" stroke-width="2" stroke-linecap="round" stroke-linejoin="round"/>
</svg>
