<svg width="16" height="16" viewBox="0 0 16 16" fill="none" xmlns="http://www.w3.org/2000/svg">
<path fill-rule="evenodd" clip-rule="evenodd" d="M1.33337 4.00002C1.33337 4.7364 1.93033 5.33335 2.66671 5.33335C3.40309 5.33335 4.00004 4.7364 4.00004 4.00002C4.00004 3.26364 3.40309 2.66669 2.66671 2.66669C1.93033 2.66669 1.33337 3.26364 1.33337 4.00002ZM5.33337 3.33335H14.6667V4.66669H5.33337V3.33335ZM14.6667 8.66669V7.33335H5.33337V8.66669H14.6667ZM14.6667 12.6667V11.3334H5.33337V12.6667H14.6667ZM1.33337 12C1.33337 12.7364 1.93033 13.3334 2.66671 13.3334C3.40309 13.3334 4.00004 12.7364 4.00004 12C4.00004 11.2636 3.40309 10.6667 2.66671 10.6667C1.93033 10.6667 1.33337 11.2636 1.33337 12ZM2.66671 9.33335C1.93033 9.33335 1.33337 8.7364 1.33337 8.00002C1.33337 7.26364 1.93033 6.66669 2.66671 6.66669C3.40309 6.66669 4.00004 7.26364 4.00004 8.00002C4.00004 8.7364 3.40309 9.33335 2.66671 9.33335Z" fill="#64814B"/>
</svg>
