<svg width="16" height="16" viewBox="0 0 16 16" fill="none" xmlns="http://www.w3.org/2000/svg">
<path fill-rule="evenodd" clip-rule="evenodd" d="M0.666626 8.66669H2.03658C2.34401 11.4478 4.55222 13.656 7.33329 13.9634V15.3334H8.66663V13.9634C11.4477 13.656 13.6559 11.4478 13.9633 8.66669H15.3333V7.33335H13.9633C13.6559 4.55228 11.4477 2.34407 8.66663 2.03664V0.666687H7.33329V2.03664C4.55222 2.34407 2.34401 4.55228 2.03658 7.33335H0.666626V8.66669ZM3.33329 8.00002C3.33329 5.42269 5.42263 3.33335 7.99996 3.33335C10.5773 3.33335 12.6666 5.42269 12.6666 8.00002C12.6666 10.5773 10.5773 12.6667 7.99996 12.6667C5.42263 12.6667 3.33329 10.5773 3.33329 8.00002ZM7.99996 5.33335C9.47272 5.33335 10.6666 6.52726 10.6666 8.00002C10.6666 9.47278 9.47272 10.6667 7.99996 10.6667C6.5272 10.6667 5.33329 9.47278 5.33329 8.00002C5.33329 6.52726 6.5272 5.33335 7.99996 5.33335ZM6.66663 8.00002C6.66663 7.26364 7.26358 6.66669 7.99996 6.66669C8.73634 6.66669 9.33329 7.26364 9.33329 8.00002C9.33329 8.7364 8.73634 9.33335 7.99996 9.33335C7.26358 9.33335 6.66663 8.7364 6.66663 8.00002Z" fill="#597B84"/>
</svg>
