<svg width="16" height="17" viewBox="0 0 16 17" fill="none" xmlns="http://www.w3.org/2000/svg">
<path fill-rule="evenodd" clip-rule="evenodd" d="M10.9582 1.83337C11.3947 1.83337 11.8131 2.00765 12.1187 2.31566L14.186 4.38292C14.4938 4.69071 14.6667 5.10815 14.6667 5.54343C14.6667 5.9787 14.4938 6.39615 14.186 6.70393L6.63833 14.2492C6.17268 14.7864 5.5126 15.1164 4.7564 15.1683H1.33333V14.5016L1.33549 11.6916C1.39229 10.9886 1.71911 10.3349 2.21766 9.89565L9.79692 2.31646C10.1043 2.00726 10.5222 1.83337 10.9582 1.83337ZM4.70932 13.8366C5.06547 13.8114 5.39699 13.6456 5.66319 13.3411L10.7045 8.29985L8.20154 5.79684L3.13073 10.8664C2.86063 11.1053 2.69353 11.4395 2.66666 11.7453V13.8353L4.70932 13.8366ZM9.14447 4.85414L11.6473 7.35704L13.2432 5.76112C13.3009 5.70339 13.3334 5.62508 13.3334 5.54343C13.3334 5.46178 13.3009 5.38347 13.2432 5.32573L11.1741 3.25661C11.117 3.19907 11.0393 3.16671 10.9582 3.16671C10.8772 3.16671 10.7995 3.19907 10.7424 3.25661L9.14447 4.85414Z" fill="#4679B2"/>
</svg>
