<svg width="12" height="13" viewBox="0 0 12 13" fill="none" xmlns="http://www.w3.org/2000/svg">
<path fill-rule="evenodd" clip-rule="evenodd" d="M0.5 6.5C0.5 9.53757 2.96243 12 6 12C9.03757 12 11.5 9.53757 11.5 6.5C11.5 3.46243 9.03757 1 6 1C2.96243 1 0.5 3.46243 0.5 6.5ZM10.5 6.5C10.5 8.98528 8.48528 11 6 11C3.51472 11 1.5 8.98528 1.5 6.5C1.5 4.01472 3.51472 2 6 2C8.48528 2 10.5 4.01472 10.5 6.5ZM6.00016 8.99917C6.2764 8.99917 6.50033 8.77532 6.50033 8.49917C6.50033 8.22303 6.2764 7.99917 6.00016 7.99917C5.72393 7.99917 5.5 8.22303 5.5 8.49917C5.5 8.77532 5.72393 8.99917 6.00016 8.99917ZM5.5 7.5H6.5C6.5 7.10082 6.56271 7.02766 6.97361 6.82221C7.68771 6.46516 8 6.10082 8 5.25C8 4.16031 7.14217 3.5 6 3.5C4.89543 3.5 4 4.39543 4 5.5H5C5 4.94772 5.44772 4.5 6 4.5C6.63858 4.5 7 4.7782 7 5.25C7 5.64918 6.93729 5.72234 6.52639 5.92779C5.81229 6.28484 5.5 6.64918 5.5 7.5Z" fill="#4679B2"/>
</svg>
