<svg width="22" height="22" viewBox="0 0 22 22" fill="none" xmlns="http://www.w3.org/2000/svg">
<path fill-rule="evenodd" clip-rule="evenodd" d="M14.9417 13.6584C15.95 12.375 16.5 10.8167 16.5 9.16671C16.5 5.13337 13.2 1.83337 9.16671 1.83337C5.13337 1.83337 1.83337 5.13337 1.83337 9.16671C1.83337 13.2 5.13337 16.5 9.16671 16.5C10.8167 16.5 12.4667 15.95 13.6584 14.9417L18.6084 19.8917L19.8917 18.6084L14.9417 13.6584ZM9.16671 14.6667C6.14171 14.6667 3.66671 12.1917 3.66671 9.16671C3.66671 6.14171 6.14171 3.66671 9.16671 3.66671C12.1917 3.66671 14.6667 6.14171 14.6667 9.16671C14.6667 12.1917 12.1917 14.6667 9.16671 14.6667Z" fill="#374957"/>
</svg>
