<svg width="20" height="20" viewBox="0 0 20 20" fill="none" xmlns="http://www.w3.org/2000/svg">
<path fill-rule="evenodd" clip-rule="evenodd" d="M15.5468 17.4142L17.3945 15.5666L16.7438 13.2025L17.0273 12.5254L19.1667 11.3182V8.70541L17.0333 7.49315L16.7546 6.81727L17.4135 4.452L15.5645 2.60573L13.2003 3.25627L12.5247 2.97302L11.3174 0.833374H8.70457L7.49231 2.96674L6.81658 3.24543L4.45169 2.58571L2.60563 4.43178L3.25627 6.79644L2.97302 7.47199L0.833374 8.67933V11.2914L2.96482 12.5064L3.24381 13.1828L2.58501 15.5477L4.43178 17.3945L6.79644 16.7438L7.47207 17.0271L8.67943 19.1659H11.2916L12.5057 17.0344L13.182 16.7554L15.5468 17.4142ZM15.7106 11.3547L14.9841 13.0898L15.5302 15.0738L15.0565 15.5475L13.0767 14.996L11.3408 15.7119L10.3228 17.4992H9.65247L8.64288 15.7108L6.90967 14.984L4.92459 15.5302L4.45173 15.0574L5.00325 13.0776L4.28739 11.3418L2.50004 10.323V9.65257L4.28929 8.64296L5.01604 6.90967L4.46983 4.9246L4.94172 4.45271L6.92151 5.005L8.658 4.28883L9.67446 2.50004H10.3441L11.3538 4.28929L13.087 5.01604L15.0725 4.46973L15.5466 4.94309L14.9951 6.9225L15.7112 8.65884L17.5 9.6753V10.345L15.7106 11.3547ZM10 13.3334C8.15909 13.3334 6.66671 11.841 6.66671 10C6.66671 8.15909 8.15909 6.66671 10 6.66671C11.841 6.66671 13.3334 8.15909 13.3334 10C13.3334 11.841 11.841 13.3334 10 13.3334ZM11.6667 10C11.6667 10.9205 10.9205 11.6667 10 11.6667C9.07957 11.6667 8.33337 10.9205 8.33337 10C8.33337 9.07957 9.07957 8.33337 10 8.33337C10.9205 8.33337 11.6667 9.07957 11.6667 10Z" fill="white"/>
</svg>
