<svg width="16" height="16" viewBox="0 0 16 16" fill="none" xmlns="http://www.w3.org/2000/svg">
<g clip-path="url(#clip0_0_453)">
<circle cx="7.99998" cy="4.00001" r="2.66667" stroke="#756383" stroke-width="1.5"/>
<path d="M12 5.99999C13.1046 5.99999 14 5.2538 14 4.33332C14 3.41285 13.1046 2.66666 12 2.66666" stroke="#756383" stroke-width="1.5" stroke-linecap="round"/>
<path d="M4 5.99999C2.89543 5.99999 2 5.2538 2 4.33332C2 3.41285 2.89543 2.66666 4 2.66666" stroke="#756383" stroke-width="1.5" stroke-linecap="round"/>
<ellipse cx="8" cy="11.3333" rx="4" ry="2.66667" stroke="#756383" stroke-width="1.5"/>
<path d="M13.3333 12.6667C14.5028 12.4102 15.3333 11.7607 15.3333 11C15.3333 10.2393 14.5028 9.58981 13.3333 9.33334" stroke="#756383" stroke-width="1.5" stroke-linecap="round"/>
<path d="M2.66669 12.6667C1.49719 12.4102 0.666687 11.7607 0.666687 11C0.666687 10.2393 1.49719 9.58981 2.66669 9.33334" stroke="#756383" stroke-width="1.5" stroke-linecap="round"/>
</g>
<defs>
<clipPath id="clip0_0_453">
<rect width="16" height="16" fill="white"/>
</clipPath>
</defs>
</svg>
