<svg width="16" height="16" viewBox="0 0 16 16" fill="none" xmlns="http://www.w3.org/2000/svg">
<path fill-rule="evenodd" clip-rule="evenodd" d="M10.3004 0.935129C11.0085 0.73283 11.7464 1.14282 11.9487 1.85087C11.9828 1.96999 12 2.09327 12 2.21716L12 3.33334H13.3334C14.0698 3.33334 14.6667 3.93029 14.6667 4.66667V12.6667C14.6667 13.4031 14.0698 14 13.3334 14H2.66671C1.93033 14 1.33337 13.4031 1.33337 12.6667H1.35118C1.33934 12.595 1.33337 12.5224 1.33337 12.4495V4.50287C1.33337 3.90757 1.72801 3.38439 2.30041 3.22084L10.3004 0.935129ZM6.76008 12.6667H13.3334L13.3334 7.33334H12V10.1638C12 10.7591 11.6054 11.2823 11.033 11.4458L6.76008 12.6667ZM12 4.66667H13.3334L13.3334 6.00001H12L12 4.66667ZM2.66671 4.50286V12.4495L10.6667 10.1638V2.21714L2.66671 4.50286ZM9.33337 6.00001C9.33337 6.3682 9.0349 6.66667 8.66671 6.66667C8.29852 6.66667 8.00004 6.3682 8.00004 6.00001C8.00004 5.63182 8.29852 5.33334 8.66671 5.33334C9.0349 5.33334 9.33337 5.63182 9.33337 6.00001Z" fill="#8FB669"/>
</svg>
