<svg width="20" height="20" viewBox="0 0 20 20" fill="none" xmlns="http://www.w3.org/2000/svg">
<path fill-rule="evenodd" clip-rule="evenodd" d="M10 3.33337C12.273 3.33337 14.4464 4.52556 16.4719 6.48433C17.1629 7.15258 17.7881 7.866 18.3384 8.57973C18.6705 9.01041 18.9063 9.3492 19.0354 9.55104L19.3225 10L19.0354 10.449C18.9063 10.6509 18.6705 10.9897 18.3384 11.4204C17.7881 12.1341 17.1629 12.8475 16.4719 13.5157C14.4464 15.4745 12.273 16.6667 10 16.6667C7.72706 16.6667 5.55362 15.4745 3.52811 13.5157C2.83709 12.8475 2.21194 12.1341 1.66161 11.4204C1.32952 10.9897 1.09375 10.6509 0.964656 10.449L0.67749 10L0.964656 9.55104C1.09375 9.3492 1.32952 9.01041 1.66161 8.57973C2.21194 7.866 2.83709 7.15258 3.52811 6.48433C5.55362 4.52556 7.72706 3.33337 10 3.33337ZM17.0186 9.59744C16.5147 8.94397 15.9418 8.29021 15.3133 7.68242C13.5688 5.99535 11.7542 5.00004 10 5.00004C8.24579 5.00004 6.43126 5.99535 4.68672 7.68242C4.05822 8.29021 3.48534 8.94397 2.98148 9.59744C2.87265 9.73857 2.77209 9.87323 2.68016 10C2.77209 10.1269 2.87265 10.2615 2.98148 10.4026C3.48534 11.0561 4.05822 11.7099 4.68672 12.3177C6.43126 14.0047 8.24579 15 10 15C11.7542 15 13.5688 14.0047 15.3133 12.3177C15.9418 11.7099 16.5147 11.0561 17.0186 10.4026C17.1274 10.2615 17.2279 10.1269 17.3199 10C17.2279 9.87323 17.1274 9.73857 17.0186 9.59744ZM6.66669 10C6.66669 11.841 8.15907 13.3334 10 13.3334C11.841 13.3334 13.3334 11.841 13.3334 10C13.3334 8.15909 11.841 6.66671 10 6.66671C8.15907 6.66671 6.66669 8.15909 6.66669 10ZM11.6667 10C11.6667 10.9205 10.9205 11.6667 10 11.6667C9.07955 11.6667 8.33335 10.9205 8.33335 10C8.33335 9.07957 9.07955 8.33337 10 8.33337C10.9205 8.33337 11.6667 9.07957 11.6667 10Z" fill="white"/>
</svg>
